<svg xmlns="http://www.w3.org/2000/svg" fill="none" viewBox="0 0 32 32"><path fill="#343434" fill-rule="evenodd" d="m16.91 1 2.984.81-2.196 8.085 6.502-6.43 2.174 2.197-5.937 5.872 8.95-2.394.798 2.986-8.053 2.154L31 16.603l-.783 2.99-8.124-2.128 6.49 6.4-2.17 2.2-6.026-5.941 2.43 8.886-2.98.816-2.215-8.097-2.41 8.879-2.983-.81 2.202-8.11-6.662 6.542-2.166-2.205 5.972-5.865-8.952 2.372-.792-2.988 8.126-2.153L1 15.066l.777-2.992 8.226 2.136-6.59-6.484 2.168-2.203 6.03 5.933-2.372-8.76 2.984-.807 2.216 8.185a5.95 5.95 0 1 0 .008-.002L16.912 1Z" clip-rule="evenodd"/></svg>